<?xml version="1.0" encoding="utf-8"?>
<!-- Generator: Adobe Illustrator 16.0.0, SVG Export Plug-In . SVG Version: 6.00 Build 0)  -->
<!DOCTYPE svg PUBLIC "-//W3C//DTD SVG 1.1//EN" "http://www.w3.org/Graphics/SVG/1.1/DTD/svg11.dtd">
<svg version="1.1" id="Capa_1" xmlns="http://www.w3.org/2000/svg" xmlns:xlink="http://www.w3.org/1999/xlink" x="0px" y="0px"
	 width="24px" height="24px" viewBox="0 0 24 24" enable-background="new 0 0 24 24" xml:space="preserve">
<circle fill="#FFFFFF" stroke="#FFFFFF" stroke-miterlimit="10" cx="12.001" cy="10.25" r="9"/>
<g id="Capa_1_1_" display="none">
	<circle display="inline" fill="#9A7D22" cx="12" cy="10.4" r="10"/>
</g>
<g id="Capa_3">
	<path fill="#6992B3" d="M11.997,0.001L11.997,0.001c-5.66-0.085-10.315,4.434-10.4,10.093c0,0.044,0,0.089,0,0.133
		c0,3.126,1.311,5.527,3.563,7.753c2.972,2.929,5.813,5.599,5.813,5.599c0.311,0.3,0.736,0.45,1.167,0.412v-0.412l0,0V24
		c0.367-0.079,0.715-0.232,1.021-0.455c0,0,2.741-2.74,5.696-5.652c2.254-2.221,3.547-4.533,3.547-7.677
		C22.376,4.547,17.759-0.027,12.09,0C12.06,0,12.028,0,11.997,0.001z M11.997,19c-4.946,0.003-8.957-4.004-8.959-8.949
		c-0.003-4.945,4.003-8.956,8.948-8.959c4.944-0.002,8.956,4.003,8.958,8.949c0,0.003,0,0.007,0,0.011
		C20.939,14.995,16.936,19,11.991,19H11.997z"/>
</g>
<g>
	<path fill="#6992B3" d="M11.685,14.006l-0.193-0.086c-0.143-0.057-0.305,0.013-0.362,0.155c-0.052,0.13,0.001,0.277,0.122,0.346
		l0.231,0.103c0.143,0.057,0.305-0.013,0.361-0.156c0.057-0.143-0.013-0.305-0.156-0.361H11.685z"/>
	<path fill="#6992B3" d="M9.848,11.489c0-0.153-0.125-0.278-0.278-0.278s-0.278,0.125-0.278,0.278
		c0.009,0.893,0.402,1.738,1.079,2.32c0.118,0.102,0.296,0.089,0.398-0.029c0.102-0.118,0.088-0.297-0.03-0.398l0,0
		C10.18,12.91,9.855,12.219,9.848,11.489z"/>
	<path fill="#6992B3" d="M15.135,6.917c-0.768-1.248-1.617-2.443-2.543-3.579c-0.288-0.326-0.785-0.357-1.111-0.07
		c-0.025,0.022-0.048,0.045-0.07,0.07c-0.924,1.136-1.772,2.331-2.539,3.579c-1.241,2.05-1.871,3.759-1.871,5.082
		c0,2.761,2.239,5,5,5c2.762,0,5-2.238,5-5C17.001,10.676,16.372,8.963,15.135,6.917z M12.001,16.228
		c-2.335-0.002-4.227-1.895-4.229-4.229c0-1.177,0.591-2.753,1.76-4.684c0.748-1.213,1.572-2.378,2.466-3.489
		c0.9,1.107,1.728,2.272,2.474,3.489c1.165,1.926,1.756,3.502,1.756,4.684C16.225,14.331,14.334,16.223,12.001,16.228z"/>
</g>
</svg>
